<svg xmlns="http://www.w3.org/2000/svg" viewBox="0 0 512 512">
  <defs>
    <linearGradient id="bg" x1="0" y1="0" x2="0" y2="1">
      <stop offset="0" stop-color="#2a211a"/>
      <stop offset="1" stop-color="#120e0b"/>
    </linearGradient>
    <linearGradient id="wood" x1="0" y1="0" x2="0" y2="1">
      <stop offset="0" stop-color="#e0a263"/>
      <stop offset="0.6" stop-color="#b0733b"/>
      <stop offset="1" stop-color="#7a4a22"/>
    </linearGradient>
    <radialGradient id="box" cx="0.45" cy="0.4" r="0.75">
      <stop offset="0" stop-color="#e6ab6c"/>
      <stop offset="0.6" stop-color="#b37740"/>
      <stop offset="1" stop-color="#7d4b22"/>
    </radialGradient>
  </defs>
  <rect x="16" y="16" width="480" height="480" rx="108" fill="url(#bg)"/>
  <rect x="16" y="16" width="480" height="480" rx="108" fill="none" stroke="#f6a930" stroke-opacity="0.35" stroke-width="6"/>
  <!-- horse head scroll -->
  <path d="M244 52 L262 78 C282 84 300 102 302 128 L284 142 C272 136 262 136 256 146 L256 300 L230 300 L230 138 C216 128 208 112 214 90 L232 64 Z" fill="url(#wood)" stroke="#2a170a" stroke-width="5"/>
  <circle cx="276" cy="104" r="6" fill="#1c0f06"/>
  <path d="M214 104 C200 110 196 124 206 132" fill="none" stroke="#3b220f" stroke-width="5" stroke-linecap="round"/>
  <!-- pegs -->
  <rect x="196" y="170" width="34" height="12" rx="6" fill="url(#wood)" stroke="#2a170a" stroke-width="3"/>
  <rect x="256" y="196" width="34" height="12" rx="6" fill="url(#wood)" stroke="#2a170a" stroke-width="3"/>
  <!-- trapezoid soundbox -->
  <path d="M150 300 L362 290 Q380 290 380 308 L394 440 Q394 458 376 458 L136 458 Q118 458 118 440 L132 318 Q132 300 150 300 Z" fill="url(#box)" stroke="#2a170a" stroke-width="6"/>
  <path d="M170 346 C184 328 204 336 198 352 C192 368 176 372 184 388 C190 400 208 396 212 386" fill="none" stroke="#1c0f06" stroke-width="8" stroke-linecap="round"/>
  <path d="M342 346 C328 328 308 336 314 352 C320 368 336 372 328 388 C322 400 304 396 300 386" fill="none" stroke="#1c0f06" stroke-width="8" stroke-linecap="round"/>
  <!-- strings and bridge -->
  <line x1="238" y1="140" x2="238" y2="438" stroke="#f3ead8" stroke-width="4"/>
  <line x1="250" y1="140" x2="250" y2="438" stroke="#f3ead8" stroke-width="3"/>
  <rect x="222" y="400" width="44" height="12" rx="3" fill="#f0d7ac" stroke="#8a6a3e" stroke-width="2"/>
  <!-- bow -->
  <path d="M92 250 Q256 214 424 246" fill="none" stroke="#f6a930" stroke-width="7" stroke-linecap="round"/>
  <line x1="98" y1="262" x2="416" y2="258" stroke="#f3ead8" stroke-width="3" stroke-opacity="0.9"/>
</svg>
